<?xml version="1.0" standalone="no"?>
<!DOCTYPE svg PUBLIC "-//W3C//DTD SVG 20010904//EN"
 "http://www.w3.org/TR/2001/REC-SVG-20010904/DTD/svg10.dtd">
<svg version="1.0" xmlns="http://www.w3.org/2000/svg"
 width="700.000000pt" height="700.000000pt" viewBox="0 0 700.000000 700.000000"
 preserveAspectRatio="xMidYMid meet">
<metadata>
Created by potrace 1.11, written by Peter Selinger 2001-2013
</metadata>
<g transform="translate(0.000000,700.000000) scale(0.100000,-0.100000)"
fill="#000000" stroke="none">
<path d="M2947 6540 c-170 -36 -355 -147 -470 -283 -68 -78 -138 -199 -170
-292 -37 -110 -1064 -4596 -1073 -4687 -12 -135 32 -317 107 -444 49 -84 199
-232 286 -283 40 -24 114 -57 165 -74 l93 -32 1600 0 1600 0 79 23 c264 76
468 273 545 525 34 110 45 230 32 331 -7 48 -138 576 -292 1174 -211 817 -286
1096 -305 1125 -43 66 -131 104 -211 92 -57 -8 -132 -60 -157 -109 -41 -82
-40 -92 137 -776 l164 -635 -1595 -3 c-877 -1 -1596 -1 -1598 1 -2 1 184 816
412 1810 343 1495 420 1819 445 1870 67 131 192 225 329 247 106 16 801 13
884 -5 122 -26 218 -101 277 -217 28 -55 50 -152 179 -796 l148 -734 -66 -86
c-37 -48 -315 -413 -619 -811 -305 -398 -561 -737 -570 -755 -11 -19 -17 -55
-18 -91 0 -74 36 -142 97 -183 36 -23 52 -27 117 -27 62 0 83 4 113 23 25 16
200 237 569 720 294 383 599 783 679 887 851 1108 1674 2192 1687 2222 23 55
14 141 -20 192 -77 116 -241 135 -334 38 -18 -17 -313 -400 -657 -850 -519
-679 -626 -814 -631 -795 -3 13 -52 257 -109 543 -103 514 -117 571 -161 671
-95 216 -302 394 -537 466 -71 21 -89 22 -568 25 -454 2 -502 1 -583 -17z
m2305 -5020 c54 -205 59 -232 55 -306 -4 -62 -11 -93 -33 -138 -36 -73 -116
-147 -192 -178 l-57 -23 -1490 -3 c-1045 -2 -1509 0 -1554 8 -120 21 -216 88
-271 191 -53 100 -52 149 9 419 29 124 54 233 57 243 5 16 93 17 1711 15
l1706 -3 59 -225z"/>
<path d="M3235 5681 c-165 -42 -225 -229 -114 -355 62 -70 90 -76 379 -76 289
0 317 6 379 76 98 112 66 268 -69 340 -31 17 -62 19 -290 21 -140 1 -268 -2
-285 -6z"/>
<path d="M3200 5014 c-154 -67 -182 -277 -49 -373 58 -43 115 -51 349 -51 234
0 291 8 349 51 134 97 105 308 -51 374 -54 22 -546 22 -598 -1z"/>
<path d="M3179 4347 c-53 -28 -103 -98 -113 -157 -14 -89 35 -184 117 -225 51
-25 52 -25 317 -25 265 0 266 0 317 25 82 41 131 136 117 225 -10 59 -60 129
-113 157 -43 22 -51 23 -321 23 -270 0 -278 -1 -321 -23z"/>
</g>
</svg>
